<svg width="24" height="24" viewBox="0 0 24 24" fill="none" xmlns="http://www.w3.org/2000/svg">
<g id="circum:grid-4-2">
<path id="Vector" d="M8.5 13.933H5.563C4.89996 13.933 4.26407 13.6696 3.79523 13.2008C3.32639 12.7319 3.063 12.096 3.063 11.433V5.563C3.063 4.89996 3.32639 4.26408 3.79523 3.79524C4.26407 3.3264 4.89996 3.063 5.563 3.063H8.5C9.16304 3.063 9.79893 3.3264 10.2678 3.79524C10.7366 4.26408 11 4.89996 11 5.563V11.433C11 12.096 10.7366 12.7319 10.2678 13.2008C9.79893 13.6696 9.16304 13.933 8.5 13.933ZM5.563 4.063C5.16518 4.063 4.78364 4.22104 4.50234 4.50234C4.22104 4.78365 4.063 5.16518 4.063 5.563V11.433C4.063 11.8308 4.22104 12.2124 4.50234 12.4937C4.78364 12.775 5.16518 12.933 5.563 12.933H8.5C8.89782 12.933 9.27936 12.775 9.56066 12.4937C9.84196 12.2124 10 11.8308 10 11.433V5.563C10 5.16518 9.84196 4.78365 9.56066 4.50234C9.27936 4.22104 8.89782 4.063 8.5 4.063H5.563ZM8.5 20.935H5.564C4.90096 20.935 4.26507 20.6716 3.79623 20.2028C3.32739 19.7339 3.064 19.098 3.064 18.435C3.064 17.772 3.32739 17.1361 3.79623 16.6672C4.26507 16.1984 4.90096 15.935 5.564 15.935H8.5C9.16304 15.935 9.79893 16.1984 10.2678 16.6672C10.7366 17.1361 11 17.772 11 18.435C11 19.098 10.7366 19.7339 10.2678 20.2028C9.79893 20.6716 9.16304 20.935 8.5 20.935ZM5.566 16.935C5.16817 16.935 4.78664 17.093 4.50534 17.3743C4.22403 17.6556 4.066 18.0372 4.066 18.435C4.066 18.8328 4.22403 19.2144 4.50534 19.4957C4.78664 19.777 5.16817 19.935 5.566 19.935H8.5C8.89782 19.935 9.27936 19.777 9.56066 19.4957C9.84196 19.2144 10 18.8328 10 18.435C10 18.0372 9.84196 17.6556 9.56066 17.3743C9.27936 17.093 8.89782 16.935 8.5 16.935H5.566ZM18.436 20.935H15.5C15.1717 20.935 14.8466 20.8703 14.5433 20.7447C14.24 20.6191 13.9644 20.4349 13.7322 20.2028C13.5001 19.9706 13.3159 19.695 13.1903 19.3917C13.0647 19.0884 13 18.7633 13 18.435V12.565C13 11.902 13.2634 11.2661 13.7322 10.7972C14.2011 10.3284 14.837 10.065 15.5 10.065H18.434C18.7623 10.065 19.0874 10.1297 19.3907 10.2553C19.694 10.3809 19.9696 10.5651 20.2018 10.7972C20.4339 11.0294 20.6181 11.305 20.7437 11.6083C20.8693 11.9116 20.934 12.2367 20.934 12.565V18.435C20.934 19.0977 20.6709 19.7333 20.2025 20.2021C19.7341 20.6708 19.0987 20.9345 18.436 20.935ZM15.5 11.065C15.1022 11.065 14.7206 11.223 14.4393 11.5043C14.158 11.7856 14 12.1672 14 12.565V18.435C14 18.8328 14.158 19.2144 14.4393 19.4957C14.7206 19.777 15.1022 19.935 15.5 19.935H18.434C18.8318 19.935 19.2134 19.777 19.4947 19.4957C19.776 19.2144 19.934 18.8328 19.934 18.435V12.565C19.934 12.1672 19.776 11.7856 19.4947 11.5043C19.2134 11.223 18.8318 11.065 18.434 11.065H15.5ZM18.436 8.063H15.5C14.837 8.063 14.2011 7.79961 13.7322 7.33077C13.2634 6.86193 13 6.22605 13 5.563C13 4.89996 13.2634 4.26408 13.7322 3.79524C14.2011 3.3264 14.837 3.063 15.5 3.063H18.434C19.097 3.063 19.7329 3.3264 20.2018 3.79524C20.6706 4.26408 20.934 4.89996 20.934 5.563C20.934 6.22605 20.6706 6.86193 20.2018 7.33077C19.7329 7.79961 19.097 8.063 18.434 8.063H18.436ZM15.502 4.063C15.1042 4.063 14.7226 4.22104 14.4413 4.50234C14.16 4.78365 14.002 5.16518 14.002 5.563C14.002 5.96083 14.16 6.34236 14.4413 6.62366C14.7226 6.90497 15.1042 7.063 15.502 7.063H18.436C18.8338 7.063 19.2154 6.90497 19.4967 6.62366C19.778 6.34236 19.936 5.96083 19.936 5.563C19.936 5.16518 19.778 4.78365 19.4967 4.50234C19.2154 4.22104 18.8338 4.063 18.436 4.063H15.502Z" fill="white"/>
</g>
</svg>
